#!OML:ASF H:\MichaelJackson\Top Level 1\Subject 1\Session 1\male.ASF
:FULLY-SPECIFIED
:DEGREES
359
root -13.1521 17.0102 -34.8334 11.03 2.93962 -0.582615
lowerback -12.7793 1.70561 6.02847
upperback 3.20455 1.5076 -2.31398
thorax 10.952 1.21807 -5.61942
lowerneck -12.9452 -1.98218 1.50067
upperneck -6.60774 -2.77534 1.9905
head 0.0731412 -1.3903 0.262138
rclavicle 4.07509e-015 -2.26615e-014
rhumerus -31.7158 5.76981 -98.146
rradius 34.5674
rwrist 11.2404
rhand -24.5007 -20.5015
rfingers 7.12502
rthumb 1.99376 -50.4719
lclavicle 4.07509e-015 -2.26615e-014
lhumerus -25.9667 -20.6989 88.761
lradius 41.3417
lwrist 6.01078
lhand -1.64953 13.0588
lfingers 7.12502
lthumb 24.0095 41.5772
rfemur -22.3227 2.21709 23.5691
rtibia 34.0111
rfoot -6.5068 -26.9541
rtoes -34.0591
lfemur -29.4265 5.47824 -18.1547
ltibia 38.9174
lfoot -16.7835 -10.0708
ltoes 54.9416
360
root -13.1548 17.0063 -34.836 11.0191 2.94727 -0.591961
lowerback -12.7751 1.70461 6.05791
upperback 3.21962 1.50157 -2.31614
thorax 10.9669 1.21824 -5.64022
lowerneck -12.9358 -1.95271 1.50061
upperneck -6.66169 -2.7341 2.02486
head 0.0549841 -1.36993 0.274755
rclavicle 1.47101e-014 -1.11319e-014
rhumerus -31.6971 5.72453 -98.1042
rradius 34.6064
rwrist 11.19
rhand -24.4253 -20.5531
rfingers 7.12502
rthumb 2.06658 -50.5228
lclavicle 1.47101e-014 -1.11319e-014
lhumerus -25.9381 -20.7122 88.7531
lradius 41.3197
lwrist 6.06487
lhand -1.60289 13.0359
lfingers 7.12502
lthumb 24.0542 41.5484
rfemur -22.3634 1.72761 23.6347
rtibia 34.0444
rfoot -6.95011 -26.6293
rtoes -34.1496
lfemur -29.595 5.68831 -18.1888
ltibia 39.1799
lfoot -16.4938 -10.1558
ltoes 54.9101
361
root -13.1575 17.0051 -34.8375 10.9951 2.95698 -0.604438
lowerback -12.7559 1.70024 6.08234
upperback 3.23461 1.49251 -2.31605
thorax 10.972 1.2162 -5.65635
lowerneck -12.9347 -1.94039 1.53451
upperneck -6.66271 -2.72257 2.00012
head 0.0535508 -1.3652 0.262069
rclavicle 1.44119e-014 1.98785e-015
rhumerus -31.5882 5.59801 -98.0448
rradius 34.529
rwrist 11.1021
rhand -24.3752 -20.2376
rfingers 7.12502
rthumb 2.11501 -50.2069
lclavicle 1.44119e-014 1.98785e-015
lhumerus -25.9458 -20.5955 88.7464
lradius 41.2846
lwrist 5.97173
lhand -1.27698 13.3555
lfingers 7.12502
lthumb 24.3667 41.8264
rfemur -22.3226 2.01042 23.635
rtibia 34.0521
rfoot -6.97268 -26.9119
rtoes -33.9232
lfemur -29.7458 5.97257 -18.2276
ltibia 39.4398
lfoot -16.2197 -10.3165
ltoes 54.8815
362
root -13.1603 17.0031 -34.8386 10.9705 2.9694 -0.632125
lowerback -12.7416 1.69655 6.11769
upperback 3.24897 1.48169 -2.31096
thorax 10.9794 1.21389 -5.6736
lowerneck -12.9136 -1.92493 1.54346
upperneck -6.69748 -2.70175 2.01296
head 0.0391624 -1.35538 0.265803
rclavicle 6.75868e-015 1.39149e-014
rhumerus -31.5899 5.54014 -98.0091
rradius 34.3457
rwrist 11.6954
rhand -24.9476 -19.5818
rfingers 7.12502
rthumb 1.56221 -49.5558
lclavicle 6.75868e-015 1.39149e-014
lhumerus -26.0067 -20.435 88.7269
lradius 41.3052
lwrist 5.83073
lhand -1.35385 12.8971
lfingers 7.12502
lthumb 24.293 41.3778
rfemur -22.316 1.86294 23.6908
rtibia 34.0712
rfoot -6.92905 -26.8164
rtoes -34.0979
lfemur -29.903 6.16654 -18.2283
ltibia 39.7263
lfoot -16.0095 -10.3486
ltoes 54.6812
363
root -13.1633 17.0034 -34.8391 10.9459 2.97419 -0.633535
lowerback -12.7284 1.68958 6.11251
upperback 3.27447 1.47369 -2.31091
thorax 10.9989 1.21117 -5.67257
lowerneck -12.9871 -1.91037 1.59774
upperneck -6.65406 -2.69229 1.99666
head 0.0636644 -1.351 0.251207
rclavicle 1.83876e-014 -2.74323e-014
rhumerus -31.4955 5.46506 -97.9909
rradius 34.3188
rwrist 11.7259
rhand -24.9553 -19.6295
rfingers 7.12502
rthumb 1.5547 -49.6036
lclavicle 1.83876e-014 -2.74323e-014
lhumerus -25.9548 -20.3916 88.7175
lradius 41.1724
lwrist 5.73449
lhand -1.4114 12.5271
lfingers 7.12502
lthumb 24.2378 41.0152
rfemur -22.3179 1.39877 23.7464
rtibia 34.08
rfoot -6.98107 -26.4636
rtoes -34.1024
lfemur -30.0451 6.32388 -18.2563
ltibia 40.0084
lfoot -15.895 -10.243
ltoes 54.4554
364
root -13.1678 17.0006 -34.8431 10.9295 2.96838 -0.666065
lowerback -12.6308 1.68081 6.11615
upperback 3.27243 1.46605 -2.30124
thorax 10.9373 1.20514 -5.66586
lowerneck -12.9811 -1.88673 1.62857
upperneck -6.73236 -2.6631 1.99079
head 0.0372503 -1.33811 0.246118
rclavicle -9.64106e-015 -9.14409e-015
rhumerus -31.3747 5.46182 -97.9917
rradius 34.2241
rwrist 11.7358
rhand -25.0745 -19.4628
rfingers 7.12502
rthumb 1.43965 -49.4377
lclavicle -9.64106e-015 -9.14409e-015
lhumerus -25.952 -20.3213 88.7063
lradius 41.1251
lwrist 5.75253
lhand -1.23869 12.7269
lfingers 7.12502
lthumb 24.4034 41.1928
rfemur -22.3458 1.23944 23.8182
rtibia 34.1052
rfoot -6.9209 -26.2916
rtoes -34.4081
lfemur -30.2174 6.57134 -18.2556
ltibia 40.3011
lfoot -15.6764 -10.1203
ltoes 54.1901
365
root -13.1728 16.9967 -34.8499 10.9102 2.96442 -0.714148
lowerback -12.5122 1.66992 6.13131
upperback 3.26342 1.45457 -2.28757
thorax 10.8553 1.19696 -5.6622
lowerneck -12.9512 -1.87474 1.64795
upperneck -6.76531 -2.64828 1.99554
head 0.0217624 -1.33168 0.245518
rclavicle 9.74045e-015 1.11319e-014
rhumerus -31.0915 5.59598 -97.9843
rradius 34.0264
rwrist 11.3663
rhand -24.9827 -19.402
rfingers 7.12502
rthumb 1.52829 -49.3763
lclavicle 9.74045e-015 1.11319e-014
lhumerus -26.0502 -20.1761 88.7056
lradius 41.0948
lwrist 5.5991
lhand -1.47758 11.8352
lfingers 7.12502
lthumb 24.1744 40.3317
rfemur -22.3689 1.31484 23.8902
rtibia 34.118
rfoot -6.74909 -26.2738
rtoes -34.482
lfemur -30.4267 6.85984 -18.2545
ltibia 40.5846
lfoot -15.4569 -10.0964
ltoes 54.0593
366
root -13.1747 16.995 -34.8482 10.8749 2.97184 -0.700413
lowerback -12.4945 1.6593 6.119
upperback 3.29233 1.44367 -2.29344
thorax 10.8755 1.19275 -5.66429
lowerneck -12.9833 -1.86825 1.69793
upperneck -6.77851 -2.6473 1.95916
head 0.0214142 -1.33267 0.22601
rclavicle -2.34566e-014 -3.10104e-014
rhumerus -30.9718 5.6667 -97.9801
rradius 34.0538
rwrist 11.0915
rhand -24.7918 -19.6602
rfingers 7.12502
rthumb 1.71269 -49.6331
lclavicle -2.34566e-014 -3.10104e-014
lhumerus -26.1118 -20.1296 88.7021
lradius 41.0953
lwrist 5.59017
lhand -1.23565 12.348
lfingers 7.12502
lthumb 24.4063 40.8135
rfemur -22.3499 1.07894 23.8991
rtibia 34.1655
rfoot -6.81333 -26.1092
rtoes -34.4929
lfemur -30.5771 7.25066 -18.3708
ltibia 40.8911
lfoot -15.2599 -10.167
ltoes 53.8572
367
root -13.1753 16.9943 -34.8465 10.8761 2.9894 -0.709883
lowerback -12.5186 1.6504 6.15687
upperback 3.31401 1.42442 -2.3003
thorax 10.913 1.18839 -5.69807
lowerneck -12.978 -1.8514 1.72923
upperneck -6.88269 -2.62675 1.94822
head -0.0130982 -1.32454 0.219167
rclavicle 8.64713e-015 -2.90226e-014
rhumerus -30.975 5.63526 -97.9684
rradius 34.0621
rwrist 11.4148
rhand -24.9814 -19.7052
rfingers 7.12502
rthumb 1.52956 -49.6795
lclavicle 8.64713e-015 -2.90226e-014
lhumerus -26.1237 -20.0479 88.6854
lradius 41.0376
lwrist 5.59058
lhand -1.20257 12.33
lfingers 7.12502
lthumb 24.438 40.7913
rfemur -22.2929 0.958859 23.9134
rtibia 34.1981
rfoot -7.15083 -26.0837
rtoes -34.3551
lfemur -30.7643 7.54641 -18.459
ltibia 41.1912
lfoot -15.1511 -10.0639
ltoes 53.6664
368
root -13.1768 16.9865 -34.8497 10.8677 2.98802 -0.724519
lowerback -12.4518 1.64293 6.16255
upperback 3.31412 1.4172 -2.29832
thorax 10.8726 1.18383 -5.70085
lowerneck -12.9837 -1.84717 1.77746
upperneck -6.91081 -2.62767 1.91182
head -0.0223376 -1.32681 0.200271
rclavicle -5.06901e-015 -2.5842e-014
rhumerus -31.0863 5.55665 -97.9665
rradius 34.2204
rwrist 11.3784
rhand -24.9509 -19.7844
rfingers 7.12502
rthumb 1.55899 -49.7585
lclavicle -5.06901e-015 -2.5842e-014
lhumerus -26.1719 -19.9324 88.6871
lradius 41.0421
lwrist 5.60946
lhand -1.15344 12.4888
lfingers 7.12502
lthumb 24.4851 40.9437
rfemur -22.3257 1.02195 23.9326
rtibia 34.2519
rfoot -7.00866 -26.1136
rtoes -34.3453
lfemur -30.9813 7.91268 -18.5577
ltibia 41.5038
lfoot -14.9788 -9.79496
ltoes 53.4493
369
root -13.1742 16.9848 -34.8408 10.8393 3.02293 -0.710217
lowerback -12.5323 1.63399 6.20077
upperback 3.35099 1.39497 -2.31186
thorax 10.9605 1.18064 -5.74296
lowerneck -13.0004 -1.83036 1.74154
upperneck -6.93603 -2.59892 1.98722
head -0.0260358 -1.31101 0.230333
rclavicle 2.28602e-015 5.1684e-015
rhumerus -31.4267 5.33916 -97.9516
rradius 34.6387
rwrist 11.5611
rhand -24.9701 -19.8278
rfingers 7.12502
rthumb 1.54041 -49.802
lclavicle 2.28602e-015 5.1684e-015
lhumerus -26.1949 -19.8281 88.6837
lradius 40.9554
lwrist 5.53953
lhand -1.14664 12.6058
lfingers 7.12502
lthumb 24.4916 41.0598
rfemur -22.2722 0.594545 23.9419
rtibia 34.2764
rfoot -7.18075 -25.9224
rtoes -34.3265
lfemur -31.0964 8.30314 -18.7201
ltibia 41.7951
lfoot -14.8457 -9.6382
ltoes 53.3807
370
root -13.1734 16.9835 -34.8379 10.8407 3.03242 -0.728653
lowerback -12.5312 1.63173 6.23907
upperback 3.36278 1.38555 -2.31285
thorax 10.9732 1.17961 -5.76828
lowerneck -13.0287 -1.83029 1.76364
upperneck -6.96776 -2.60167 1.98519
head -0.0319272 -1.31314 0.225976
rclavicle 1.60022e-014 3.97569e-016
rhumerus -31.3437 5.37105 -97.9568
rradius 34.5041
rwrist 11.4538
rhand -24.9784 -19.7561
rfingers 7.12502
rthumb 1.53247 -49.7304
lclavicle 1.60022e-014 3.97569e-016
lhumerus -26.2082 -19.7101 88.683
lradius 40.9088
lwrist 5.51903
lhand -1.11706 12.6615
lfingers 7.12502
lthumb 24.52 41.1116
rfemur -22.3291 0.468048 23.9735
rtibia 34.324
rfoot -6.94111 -25.8143
rtoes -34.7726
lfemur -31.2871 8.70374 -18.8553
ltibia 42.0962
lfoot -15.2735 -10.1548
ltoes 53.3688
